<mxfile host="www.draw.io" modified="2019-11-09T02:51:39.869Z" agent="Mozilla/5.0 (Windows NT 10.0; WOW64) AppleWebKit/537.36 (KHTML, like Gecko) Chrome/72.0.3626.121 Safari/537.36" etag="KaK-bc54pT5Gr3WYRzp5" version="12.2.2" type="github" pages="1">
  <diagram id="DeTcR2ddXe0aXChrnhDB" name="Page-1">
    <mxGraphModel dx="1722" dy="1588" grid="1" gridSize="10" guides="1" tooltips="1" connect="1" arrows="1" fold="1" page="1" pageScale="1" pageWidth="827" pageHeight="1169" math="0" shadow="0">
      <root>
        <mxCell id="0"/>
        <mxCell id="1" parent="0"/>
        <mxCell id="Zlj-ud3cJdW0BJ65da6C-6" value="" style="group" vertex="1" connectable="0" parent="1">
          <mxGeometry x="100" y="247" width="370" height="148" as="geometry"/>
        </mxCell>
        <mxCell id="juWBPiS8LpCrzN6CJ-U1-1" value="ServerDepend" style="swimlane;fontStyle=1;align=center;verticalAlign=top;childLayout=stackLayout;horizontal=1;startSize=26;horizontalStack=0;resizeParent=1;resizeParentMax=0;resizeLast=0;collapsible=1;marginBottom=0;fillColor=#dae8fc;strokeColor=#6c8ebf;" parent="Zlj-ud3cJdW0BJ65da6C-6" vertex="1">
          <mxGeometry y="20" width="370" height="128" as="geometry"/>
        </mxCell>
        <mxCell id="juWBPiS8LpCrzN6CJ-U1-2" value="# pdata_: std::vector&lt;troute::ServerNameAndAddress*&gt;*" style="text;align=left;verticalAlign=top;spacingLeft=4;spacingRight=4;overflow=hidden;rotatable=0;points=[[0,0.5],[1,0.5]];portConstraint=eastwest;" parent="juWBPiS8LpCrzN6CJ-U1-1" vertex="1">
          <mxGeometry y="26" width="370" height="24" as="geometry"/>
        </mxCell>
        <mxCell id="juWBPiS8LpCrzN6CJ-U1-3" value="" style="line;strokeWidth=1;fillColor=none;align=left;verticalAlign=middle;spacingTop=-1;spacingLeft=3;spacingRight=3;rotatable=0;labelPosition=right;points=[];portConstraint=eastwest;" parent="juWBPiS8LpCrzN6CJ-U1-1" vertex="1">
          <mxGeometry y="50" width="370" height="8" as="geometry"/>
        </mxCell>
        <mxCell id="juWBPiS8LpCrzN6CJ-U1-4" value="+ AddName(unsigned int id, const std::string&amp; name): int &#xa;+ GetName(unsigned int id) const: string&#xa;+ GetHandle(unsigned int id) const: ServerNameAndAddress *&#xa;+ GetRawData(): void *" style="text;align=left;verticalAlign=top;spacingLeft=4;spacingRight=4;overflow=hidden;rotatable=0;points=[[0,0.5],[1,0.5]];portConstraint=eastwest;" parent="juWBPiS8LpCrzN6CJ-U1-1" vertex="1">
          <mxGeometry y="58" width="370" height="70" as="geometry"/>
        </mxCell>
        <mxCell id="juWBPiS8LpCrzN6CJ-U1-5" value="baseagent\tbuspp_api\tbuspp.h" style="text;html=1;strokeColor=none;fillColor=none;align=center;verticalAlign=middle;whiteSpace=wrap;rounded=0;" parent="Zlj-ud3cJdW0BJ65da6C-6" vertex="1">
          <mxGeometry width="180" height="20" as="geometry"/>
        </mxCell>
        <mxCell id="Zlj-ud3cJdW0BJ65da6C-7" value="" style="group" vertex="1" connectable="0" parent="1">
          <mxGeometry x="100" y="480" width="380" height="280" as="geometry"/>
        </mxCell>
        <mxCell id="juWBPiS8LpCrzN6CJ-U1-11" value="baseagent\troute\server_name_address.h" style="text;html=1;strokeColor=none;fillColor=none;align=center;verticalAlign=middle;whiteSpace=wrap;rounded=0;" parent="Zlj-ud3cJdW0BJ65da6C-7" vertex="1">
          <mxGeometry width="230" height="20" as="geometry"/>
        </mxCell>
        <mxCell id="juWBPiS8LpCrzN6CJ-U1-16" value="ServerNameAndAddress" style="swimlane;fontStyle=1;align=center;verticalAlign=top;childLayout=stackLayout;horizontal=1;startSize=26;horizontalStack=0;resizeParent=1;resizeParentMax=0;resizeLast=0;collapsible=1;marginBottom=0;fillColor=#dae8fc;strokeColor=#6c8ebf;" parent="Zlj-ud3cJdW0BJ65da6C-7" vertex="1">
          <mxGeometry y="20" width="380" height="260" as="geometry"/>
        </mxCell>
        <mxCell id="juWBPiS8LpCrzN6CJ-U1-17" value="# address_[kAdressMaxLength]: char &#xa;# me_version_: unsigned int&#xa;# top_offset_: unsigned int&#xa;# field_offset_[kAddress_root_level * 2+2]: int&#xa;# hash_id_: unsigned int&#xa;# ip_[20]: char&#xa;# port_: unsigned int&#xa;# conn_type_: ConnType&#xa;# protocol_type_: ProtocolType" style="text;align=left;verticalAlign=top;spacingLeft=4;spacingRight=4;overflow=hidden;rotatable=0;points=[[0,0.5],[1,0.5]];portConstraint=eastwest;fontColor=#000000;" parent="juWBPiS8LpCrzN6CJ-U1-16" vertex="1">
          <mxGeometry y="26" width="380" height="134" as="geometry"/>
        </mxCell>
        <mxCell id="juWBPiS8LpCrzN6CJ-U1-18" value="" style="line;strokeWidth=1;fillColor=none;align=left;verticalAlign=middle;spacingTop=-1;spacingLeft=3;spacingRight=3;rotatable=0;labelPosition=right;points=[];portConstraint=eastwest;" parent="juWBPiS8LpCrzN6CJ-U1-16" vertex="1">
          <mxGeometry y="160" width="380" height="8" as="geometry"/>
        </mxCell>
        <mxCell id="juWBPiS8LpCrzN6CJ-U1-19" value="+ AddField(AdressType type, const std::string&amp; name): int &#xa;+ AddAppInstance(unsigned long long instance_id): int&#xa;+ AddBaseAgentIpPort(const std::string&amp; ip, unsigned short port)：int&#xa;+ SetProtocolType(ProtocolType protocl_type): void&#xa;+ SetConnType(ConnType conn_type): void&#xa;# HashServerName(): void" style="text;align=left;verticalAlign=top;spacingLeft=4;spacingRight=4;overflow=hidden;rotatable=0;points=[[0,0.5],[1,0.5]];portConstraint=eastwest;" parent="juWBPiS8LpCrzN6CJ-U1-16" vertex="1">
          <mxGeometry y="168" width="380" height="92" as="geometry"/>
        </mxCell>
        <mxCell id="Zlj-ud3cJdW0BJ65da6C-8" value="" style="group" vertex="1" connectable="0" parent="1">
          <mxGeometry x="-432" y="527" width="430" height="170" as="geometry"/>
        </mxCell>
        <mxCell id="Zlj-ud3cJdW0BJ65da6C-1" value="MakeServerNameAndAddress" style="swimlane;fontStyle=1;align=center;verticalAlign=top;childLayout=stackLayout;horizontal=1;startSize=26;horizontalStack=0;resizeParent=1;resizeParentMax=0;resizeLast=0;collapsible=1;marginBottom=0;fillColor=#dae8fc;strokeColor=#6c8ebf;" vertex="1" parent="Zlj-ud3cJdW0BJ65da6C-8">
          <mxGeometry x="10" y="20" width="420" height="156" as="geometry"/>
        </mxCell>
        <mxCell id="Zlj-ud3cJdW0BJ65da6C-2" value="+ code_: int&#xa;+ err_msg_: string" style="text;align=left;verticalAlign=top;spacingLeft=4;spacingRight=4;overflow=hidden;rotatable=0;points=[[0,0.5],[1,0.5]];portConstraint=eastwest;" vertex="1" parent="Zlj-ud3cJdW0BJ65da6C-1">
          <mxGeometry y="26" width="420" height="40" as="geometry"/>
        </mxCell>
        <mxCell id="Zlj-ud3cJdW0BJ65da6C-3" value="" style="line;strokeWidth=1;fillColor=none;align=left;verticalAlign=middle;spacingTop=-1;spacingLeft=3;spacingRight=3;rotatable=0;labelPosition=right;points=[];portConstraint=eastwest;" vertex="1" parent="Zlj-ud3cJdW0BJ65da6C-1">
          <mxGeometry y="66" width="420" height="8" as="geometry"/>
        </mxCell>
        <mxCell id="Zlj-ud3cJdW0BJ65da6C-4" value="+ MakeName(const std::string&amp; name): ServerNameAndAddress *&#xa;+ MakeInstance(const std::string&amp; name, &#xa;                          const std::string&amp; ip, unsigned int port, &#xa;                          unsigned long long instanceid): ServerNameAndAddress *&#xa;# ParseNameField(const std::string&amp; name, std::vector&lt;std::string&gt;&amp; fieldv)" style="text;align=left;verticalAlign=top;spacingLeft=4;spacingRight=4;overflow=hidden;rotatable=0;points=[[0,0.5],[1,0.5]];portConstraint=eastwest;" vertex="1" parent="Zlj-ud3cJdW0BJ65da6C-1">
          <mxGeometry y="74" width="420" height="82" as="geometry"/>
        </mxCell>
        <mxCell id="Zlj-ud3cJdW0BJ65da6C-5" value="baseagent\troute\troute_api.h" style="text;html=1;strokeColor=none;fillColor=none;align=center;verticalAlign=middle;whiteSpace=wrap;rounded=0;" vertex="1" parent="Zlj-ud3cJdW0BJ65da6C-8">
          <mxGeometry width="170" height="20" as="geometry"/>
        </mxCell>
        <mxCell id="Zlj-ud3cJdW0BJ65da6C-9" value="Use" style="endArrow=open;endSize=12;dashed=1;html=1;fontColor=#45FFA8;exitX=1;exitY=0.5;exitDx=0;exitDy=0;entryX=0;entryY=0.5;entryDx=0;entryDy=0;" edge="1" parent="1" source="Zlj-ud3cJdW0BJ65da6C-2" target="juWBPiS8LpCrzN6CJ-U1-17">
          <mxGeometry width="160" relative="1" as="geometry">
            <mxPoint x="9" y="584" as="sourcePoint"/>
            <mxPoint x="89" y="584" as="targetPoint"/>
          </mxGeometry>
        </mxCell>
        <mxCell id="Zlj-ud3cJdW0BJ65da6C-16" value="" style="endArrow=diamondThin;endFill=0;endSize=24;html=1;fontColor=#45FFA8;" edge="1" parent="1">
          <mxGeometry width="160" relative="1" as="geometry">
            <mxPoint x="284" y="495" as="sourcePoint"/>
            <mxPoint x="284" y="399" as="targetPoint"/>
          </mxGeometry>
        </mxCell>
      </root>
    </mxGraphModel>
  </diagram>
</mxfile>
